<mxfile host="app.diagrams.net" modified="2021-08-31T01:43:18.712Z" agent="5.0 (Macintosh; Intel Mac OS X 10_15_7) AppleWebKit/605.1.15 (KHTML, like Gecko) Version/14.1.2 Safari/605.1.15" etag="Ae6DRey7gHf9J1vqpeNt" version="15.0.3" type="github">
  <diagram id="imqHqAIE_7iQJh5peh_I" name="Page-1">
    <mxGraphModel dx="1112" dy="742" grid="1" gridSize="3" guides="1" tooltips="1" connect="1" arrows="1" fold="1" page="1" pageScale="1" pageWidth="850" pageHeight="1100" math="0" shadow="0">
      <root>
        <mxCell id="0" />
        <mxCell id="1" parent="0" />
        <mxCell id="7mrcmtbpyO2l2KB8bpA0-2" value="" style="shape=trapezoid;perimeter=trapezoidPerimeter;whiteSpace=wrap;html=1;fixedSize=1;size=80;" vertex="1" parent="1">
          <mxGeometry x="190" y="230" width="480" height="130" as="geometry" />
        </mxCell>
        <mxCell id="7mrcmtbpyO2l2KB8bpA0-17" value="" style="rounded=0;whiteSpace=wrap;html=1;fillColor=none;" vertex="1" parent="1">
          <mxGeometry x="170" y="180" width="355" height="205" as="geometry" />
        </mxCell>
        <mxCell id="7mrcmtbpyO2l2KB8bpA0-3" value="" style="line;strokeWidth=2;direction=south;html=1;" vertex="1" parent="1">
          <mxGeometry x="425" y="230" width="10" height="130" as="geometry" />
        </mxCell>
        <mxCell id="7mrcmtbpyO2l2KB8bpA0-6" value="" style="endArrow=none;html=1;exitX=0.166;exitY=0;exitDx=0;exitDy=0;exitPerimeter=0;" edge="1" parent="1" source="7mrcmtbpyO2l2KB8bpA0-2">
          <mxGeometry width="50" height="50" relative="1" as="geometry">
            <mxPoint x="400" y="410" as="sourcePoint" />
            <mxPoint x="265" y="192" as="targetPoint" />
          </mxGeometry>
        </mxCell>
        <mxCell id="7mrcmtbpyO2l2KB8bpA0-8" value="" style="endArrow=none;html=1;exitX=0.166;exitY=0;exitDx=0;exitDy=0;exitPerimeter=0;" edge="1" parent="1">
          <mxGeometry width="50" height="50" relative="1" as="geometry">
            <mxPoint x="590" y="230" as="sourcePoint" />
            <mxPoint x="609" y="185" as="targetPoint" />
          </mxGeometry>
        </mxCell>
        <mxCell id="7mrcmtbpyO2l2KB8bpA0-9" value="" style="endArrow=none;html=1;exitX=0.166;exitY=0;exitDx=0;exitDy=0;exitPerimeter=0;" edge="1" parent="1">
          <mxGeometry width="50" height="50" relative="1" as="geometry">
            <mxPoint x="190.00000000000006" y="360" as="sourcePoint" />
            <mxPoint x="180" y="320" as="targetPoint" />
          </mxGeometry>
        </mxCell>
        <mxCell id="7mrcmtbpyO2l2KB8bpA0-10" value="" style="endArrow=none;html=1;exitX=0.166;exitY=0;exitDx=0;exitDy=0;exitPerimeter=0;" edge="1" parent="1">
          <mxGeometry width="50" height="50" relative="1" as="geometry">
            <mxPoint x="670" y="360" as="sourcePoint" />
            <mxPoint x="696" y="315" as="targetPoint" />
          </mxGeometry>
        </mxCell>
        <mxCell id="7mrcmtbpyO2l2KB8bpA0-11" value="Subject" style="shape=umlActor;verticalLabelPosition=bottom;verticalAlign=top;html=1;outlineConnect=0;" vertex="1" parent="1">
          <mxGeometry x="310" y="250" width="20" height="40" as="geometry" />
        </mxCell>
        <mxCell id="7mrcmtbpyO2l2KB8bpA0-21" value="" style="endArrow=none;dashed=1;html=1;entryX=0;entryY=0;entryDx=0;entryDy=0;exitX=0;exitY=0;exitDx=0;exitDy=0;exitPerimeter=0;" edge="1" parent="1" target="7mrcmtbpyO2l2KB8bpA0-17">
          <mxGeometry width="50" height="50" relative="1" as="geometry">
            <mxPoint x="340.0050000000001" y="690.625" as="sourcePoint" />
            <mxPoint x="490" y="360" as="targetPoint" />
          </mxGeometry>
        </mxCell>
        <mxCell id="7mrcmtbpyO2l2KB8bpA0-22" value="" style="endArrow=none;dashed=1;html=1;entryX=0;entryY=1;entryDx=0;entryDy=0;exitX=0;exitY=0;exitDx=0;exitDy=0;exitPerimeter=0;" edge="1" parent="1" target="7mrcmtbpyO2l2KB8bpA0-17">
          <mxGeometry width="50" height="50" relative="1" as="geometry">
            <mxPoint x="340.0050000000001" y="690.625" as="sourcePoint" />
            <mxPoint x="180.00000000000023" y="190" as="targetPoint" />
          </mxGeometry>
        </mxCell>
        <mxCell id="7mrcmtbpyO2l2KB8bpA0-23" value="" style="endArrow=none;dashed=1;html=1;entryX=1;entryY=0;entryDx=0;entryDy=0;" edge="1" parent="1" target="7mrcmtbpyO2l2KB8bpA0-17">
          <mxGeometry width="50" height="50" relative="1" as="geometry">
            <mxPoint x="340" y="691" as="sourcePoint" />
            <mxPoint x="190.00000000000023" y="200" as="targetPoint" />
          </mxGeometry>
        </mxCell>
        <mxCell id="7mrcmtbpyO2l2KB8bpA0-24" value="" style="endArrow=none;dashed=1;html=1;exitX=1;exitY=1;exitDx=0;exitDy=0;" edge="1" parent="1" source="7mrcmtbpyO2l2KB8bpA0-17">
          <mxGeometry width="50" height="50" relative="1" as="geometry">
            <mxPoint x="237.13535397645546" y="531.2550000000001" as="sourcePoint" />
            <mxPoint x="340" y="690" as="targetPoint" />
          </mxGeometry>
        </mxCell>
        <mxCell id="7mrcmtbpyO2l2KB8bpA0-25" value="" style="shape=cube;whiteSpace=wrap;html=1;boundedLbl=1;backgroundOutline=1;darkOpacity=0.05;darkOpacity2=0.1;rotation=90;size=14;" vertex="1" parent="1">
          <mxGeometry x="318" y="675" width="38.75" height="40" as="geometry" />
        </mxCell>
        <mxCell id="7mrcmtbpyO2l2KB8bpA0-26" value="" style="endArrow=classic;html=1;fillColor=#f8cecc;strokeColor=#b85450;" edge="1" parent="1">
          <mxGeometry width="50" height="50" relative="1" as="geometry">
            <mxPoint x="438" y="192" as="sourcePoint" />
            <mxPoint x="339" y="690" as="targetPoint" />
          </mxGeometry>
        </mxCell>
        <mxCell id="7mrcmtbpyO2l2KB8bpA0-27" value="" style="endArrow=none;html=1;exitX=0.166;exitY=0;exitDx=0;exitDy=0;exitPerimeter=0;" edge="1" parent="1">
          <mxGeometry width="50" height="50" relative="1" as="geometry">
            <mxPoint x="429.68000000000006" y="232" as="sourcePoint" />
            <mxPoint x="438" y="192" as="targetPoint" />
          </mxGeometry>
        </mxCell>
        <mxCell id="7mrcmtbpyO2l2KB8bpA0-28" value="" style="endArrow=classic;html=1;fillColor=#f8cecc;strokeColor=#b85450;" edge="1" parent="1">
          <mxGeometry width="50" height="50" relative="1" as="geometry">
            <mxPoint x="264" y="192" as="sourcePoint" />
            <mxPoint x="339" y="690" as="targetPoint" />
          </mxGeometry>
        </mxCell>
      </root>
    </mxGraphModel>
  </diagram>
</mxfile>
